{"glyphs":{"0":{"ha":678,"x_min":0,"x_max":0,"o":"m 322 0 b 644 311 483 0 644 106 l 644 800 b 322 1111 644 1004 483 1111 b 0 800 161 1111 0 1004 l 0 311 b 322 0 0 106 161 0 z m 322 929 b 439 811 379 929 439 890 l 439 304 b 322 185 439 225 381 185 b 207 304 265 185 207 225 l 207 811 b 322 929 207 890 264 929 z "},"1":{"ha":456,"x_min":0,"x_max":0,"o":"m 433 1099 b 419 1111 433 1104 429 1111 l 260 1111 l 8 975 b 1 958 0 971 -1 965 l 63 829 b 81 821 65 822 74 819 b 222 874 126 838 174 857 l 222 13 b 236 0 222 7 226 0 l 419 0 b 433 13 429 0 433 7 z "},"2":{"ha":689,"x_min":0,"x_max":0,"o":"m 657 192 b 640 204 657 197 650 204 l 258 204 l 564 608 b 643 821 619 681 643 756 b 328 1111 643 990 490 1111 b 11 790 110 1111 11 968 b 26 779 11 785 17 779 l 194 779 b 210 790 204 779 210 785 b 328 907 210 872 271 907 b 425 810 382 907 425 867 b 388 711 425 781 414 747 l 0 178 l 0 13 b 15 0 0 7 7 0 l 640 0 b 657 13 650 0 657 7 z "},"3":{"ha":732,"x_min":0,"x_max":0,"o":"m 171 543 b 185 524 165 533 172 524 l 332 524 b 479 354 421 517 479 449 b 336 201 479 279 431 201 b 207 324 271 201 207 249 b 193 336 207 331 200 336 l 15 336 b 0 324 7 336 0 331 b 336 0 0 125 157 0 b 690 342 517 0 690 100 b 464 686 690 517 608 643 l 694 1092 b 681 1111 700 1103 693 1111 l 51 1111 b 36 1099 42 1111 36 1106 l 36 926 b 51 914 36 921 42 914 l 388 914 z "},"4":{"ha":693,"x_min":0,"x_max":0,"o":"m 660 1099 b 644 1111 660 1104 654 1111 l 464 1111 b 453 1107 460 1111 454 1108 l 0 515 l 0 342 b 15 329 0 335 7 329 l 449 329 l 449 13 b 464 0 449 7 456 0 l 644 0 b 660 13 654 0 660 7 z m 451 814 l 451 513 l 211 513 z "},"5":{"ha":707,"x_min":0,"x_max":0,"o":"m 0 325 b 328 0 0 113 146 0 b 672 339 510 0 672 126 b 328 707 672 561 567 707 l 218 707 l 218 919 l 600 919 b 617 932 610 919 617 925 l 617 1099 b 600 1111 617 1104 610 1111 l 24 1111 b 8 1099 14 1111 8 1104 l 8 536 b 24 524 8 529 14 524 l 328 524 b 464 350 421 524 464 444 b 328 203 464 275 417 203 b 208 325 263 203 208 242 b 193 338 208 332 203 338 l 15 338 b 0 325 7 338 0 332 z "},"6":{"ha":683,"x_min":0,"x_max":0,"o":"m 0 329 b 322 0 0 150 128 0 b 651 325 503 0 651 146 b 363 649 651 490 542 649 b 306 643 338 649 319 649 l 464 1094 b 451 1111 468 1103 461 1111 l 261 1111 b 249 1103 254 1111 250 1108 l 15 442 b 0 329 3 404 0 367 z m 194 324 b 324 458 194 397 254 458 b 456 324 396 458 456 397 b 324 190 456 250 396 190 b 194 324 253 190 194 250 z "},"7":{"ha":715,"x_min":0,"x_max":0,"o":"m 51 18 b 64 0 46 8 54 0 l 257 0 b 269 8 264 0 268 3 l 679 1093 b 665 1111 685 1103 676 1111 l 15 1111 b 0 1099 7 1111 0 1104 l 0 924 b 15 911 0 918 7 911 l 388 911 z "},"8":{"ha":682,"x_min":0,"x_max":0,"o":"m 536 557 b 649 783 606 607 649 699 b 324 1111 649 1000 485 1111 b 0 783 163 1111 0 1000 b 107 558 0 700 44 613 b 0 329 46 506 0 413 b 324 0 0 110 163 0 b 649 329 485 0 649 110 b 536 557 649 413 606 499 z m 324 654 b 197 783 253 654 197 711 b 324 921 197 875 260 921 b 450 783 386 921 450 875 b 324 654 450 711 393 654 z m 324 194 b 203 329 263 194 203 239 b 324 461 203 399 257 461 b 444 329 390 461 444 399 b 324 194 444 239 383 194 z "},"9":{"ha":683,"x_min":0,"x_max":0,"o":"m 651 782 b 328 1111 651 961 524 1111 b 0 786 149 1111 0 965 b 289 463 0 621 110 463 b 346 468 314 463 329 463 l 185 17 b 200 0 182 8 189 0 l 389 0 b 403 8 396 0 401 3 l 633 668 b 651 782 649 710 651 747 z m 454 788 b 326 656 454 714 394 656 b 200 788 256 656 200 715 b 326 918 200 860 256 918 b 454 788 396 918 454 860 z "}," ":{"ha":347,"x_min":0,"x_max":0,"o":""},"!":{"ha":232,"x_min":0,"x_max":0,"o":"m 221 107 b 108 215 221 165 172 215 b 0 107 50 215 0 165 b 108 0 0 49 50 0 b 221 107 172 0 221 49 z m 26 1042 b 11 1031 18 1042 11 1036 l 11 317 b 26 304 11 311 18 304 l 194 304 b 208 317 203 304 208 311 l 208 1031 b 194 1042 208 1036 203 1042 z "},"#":{"ha":978,"x_min":0,"x_max":0,"o":"m 876 619 b 890 629 882 619 889 624 l 931 772 b 917 788 933 781 926 788 l 806 788 l 875 1026 b 860 1042 878 1035 869 1042 l 707 1042 b 692 1033 700 1042 693 1038 l 622 788 l 482 788 l 550 1026 b 536 1042 553 1035 546 1042 l 382 1042 b 368 1033 376 1042 369 1038 l 297 788 l 168 788 b 154 779 163 788 156 783 l 114 635 b 128 619 111 626 118 619 l 253 619 b 185 383 229 538 207 467 l 57 383 b 42 375 51 383 43 379 l 0 228 b 14 213 -3 219 6 213 l 138 213 l 83 15 b 97 0 81 7 89 0 l 250 0 b 265 8 257 0 264 4 l 322 213 l 461 213 l 404 15 b 419 0 403 7 410 0 l 574 0 b 588 8 581 0 586 4 l 646 213 l 761 213 b 776 221 768 213 775 217 l 818 368 b 803 383 821 376 814 383 l 693 383 b 761 619 714 467 738 538 z m 518 364 l 349 364 l 429 639 l 599 639 z "},"(":{"ha":374,"x_min":0,"x_max":0,"o":"m 144 0 l 342 0 b 351 18 353 0 360 8 b 199 526 253 168 199 347 b 353 1024 199 699 250 865 b 343 1042 361 1033 354 1042 l 146 1042 b 132 1036 142 1042 135 1039 b 0 525 33 851 0 676 b 131 6 0 340 47 163 z "},")":{"ha":376,"x_min":0,"x_max":0,"o":"m 214 1042 l 17 1042 b 4 1024 3 1042 -3 1033 b 131 736 36 976 93 879 b 160 515 149 661 160 588 b 3 18 160 343 107 176 b 15 0 -4 8 1 0 l 213 0 b 225 6 217 0 224 3 b 358 518 324 190 358 367 b 324 783 358 619 343 710 b 226 1036 299 883 261 969 z "},"+":{"ha":724,"x_min":0,"x_max":0,"o":"m 689 432 b 672 446 689 439 683 446 l 439 446 l 439 681 b 422 694 439 688 432 694 l 256 694 b 239 681 246 694 239 688 l 239 446 l 17 446 b 0 432 7 446 0 439 l 0 265 b 17 253 0 258 7 253 l 239 253 l 239 14 b 256 0 239 7 246 0 l 422 0 b 439 14 432 0 439 7 l 439 253 l 672 253 b 689 265 683 253 689 258 z "},",":{"ha":1389,"x_min":0,"x_max":0,"o":""},"-":{"ha":814,"x_min":0,"x_max":0,"o":"m 676 776 b 664 789 676 782 672 789 l 167 789 b 151 776 157 789 151 782 l 151 626 b 167 615 151 621 157 615 l 664 615 b 676 626 672 615 676 621 z "},".":{"ha":210,"x_min":0,"x_max":0,"o":"m 200 97 b 99 196 200 150 156 196 b 0 97 44 196 0 150 b 99 0 0 43 44 0 b 200 97 156 0 200 43 z "},"/":{"ha":707,"x_min":0,"x_max":0,"o":"m 486 1042 b 472 1035 482 1042 474 1038 l 1 17 b 14 0 -3 7 3 0 l 183 0 b 196 7 188 0 194 4 l 672 1025 b 660 1042 676 1035 671 1042 z "},":":{"ha":244,"x_min":0,"x_max":0,"o":"m 232 579 b 115 694 232 642 182 694 b 0 579 53 694 0 642 b 115 467 0 518 53 467 b 232 579 182 467 232 518 z m 232 113 b 115 228 232 175 182 228 b 0 113 53 228 0 175 b 115 0 0 51 53 0 b 232 113 182 0 232 51 z "},";":{"ha":213,"x_min":0,"x_max":0,"o":"m 203 197 b 96 301 203 254 172 301 b 0 208 43 301 0 260 b 82 115 0 161 35 121 l 82 11 b 101 3 82 3 93 -4 b 203 197 157 36 203 126 z m 201 599 b 103 694 201 651 160 694 b 8 599 51 694 8 651 b 103 506 8 547 51 506 b 201 599 160 506 201 547 z "},"=":{"ha":688,"x_min":0,"x_max":0,"o":"m 656 507 b 639 521 656 514 650 521 l 18 521 b 0 507 7 521 0 514 l 0 328 b 18 315 0 324 7 315 l 639 315 b 656 328 650 315 656 324 z m 656 193 b 639 207 656 200 650 207 l 18 207 b 0 193 7 207 0 200 l 0 13 b 18 0 0 7 7 0 l 639 0 b 656 13 650 0 656 7 z "},"?":{"ha":651,"x_min":0,"x_max":0,"o":"m 619 729 b 306 1042 619 933 483 1042 b 0 754 136 1042 0 922 b 15 743 0 749 6 743 l 179 743 b 194 754 189 743 194 749 b 306 851 194 815 243 851 b 425 729 367 851 425 828 b 225 607 425 674 383 597 b 208 596 215 607 208 603 l 208 293 b 224 283 208 289 214 283 l 374 283 b 388 293 382 283 388 289 l 388 460 b 619 729 511 494 619 604 z m 304 208 b 193 104 249 208 193 172 b 300 0 193 35 247 0 b 413 104 357 0 413 36 b 304 208 413 174 358 208 z "},"@":{"ha":1103,"x_min":0,"x_max":0,"o":"m 788 519 b 525 779 788 661 669 779 b 263 519 379 779 263 661 b 525 260 263 376 379 260 l 1036 260 b 1050 271 1044 260 1050 265 l 1050 519 b 525 1042 1050 847 807 1042 b 0 519 204 1042 0 800 b 525 0 0 239 204 0 l 1021 0 b 1036 11 1031 0 1036 6 l 1036 165 b 1021 176 1036 171 1031 176 l 525 176 b 186 519 313 176 186 343 b 525 860 186 696 310 860 b 858 519 701 860 858 735 l 858 419 l 768 419 b 788 519 782 446 788 494 z m 525 428 b 436 519 478 428 436 468 b 525 611 436 571 478 611 b 614 519 574 611 614 571 b 525 428 614 468 574 428 z "},"A":{"ha":917,"x_min":0,"x_max":0,"o":"m 872 17 l 450 1103 b 422 1103 446 1114 426 1114 l 1 17 b 15 0 -3 8 3 0 l 206 0 b 219 8 211 0 218 3 l 436 628 l 656 8 b 668 0 657 3 664 0 l 860 0 b 872 17 869 0 876 8 z "},"B":{"ha":808,"x_min":0,"x_max":0,"o":"m 542 781 b 378 658 542 658 378 658 l 211 658 l 211 913 l 378 913 b 542 781 378 913 542 914 z m 754 793 b 378 1111 754 1119 378 1111 l 15 1111 b 0 1099 7 1111 0 1104 l 0 451 l 211 451 l 378 451 b 557 329 378 451 557 460 b 378 203 557 222 447 203 l 213 203 l 213 0 l 378 0 b 769 324 453 0 769 14 b 600 556 769 324 776 496 b 754 793 685 590 754 664 z "},"C":{"ha":890,"x_min":0,"x_max":0,"o":"m 635 204 l 635 204 b 214 556 500 199 214 213 b 635 908 214 819 393 921 l 635 663 l 847 663 l 847 1099 b 832 1111 847 1104 842 1111 l 651 1111 b 0 556 379 1111 0 1049 b 651 0 0 81 375 0 l 832 0 b 847 13 842 0 847 7 l 847 204 z "},"D":{"ha":890,"x_min":0,"x_max":0,"o":"m 197 1111 l 15 1111 b 0 1099 7 1111 0 1104 l 0 663 l 213 663 l 213 908 b 633 556 454 921 633 819 b 213 204 633 213 347 199 l 213 449 l 0 449 l 0 13 b 15 0 0 7 7 0 l 197 0 b 847 556 474 0 847 81 b 197 1111 847 1049 468 1111 z "},"E":{"ha":697,"x_min":0,"x_max":0,"o":"m 528 207 l 213 207 l 213 457 l 649 457 b 664 469 657 457 664 464 l 664 646 b 649 658 664 653 657 658 l 213 658 l 213 910 l 528 910 l 528 1111 l 15 1111 b 0 1099 7 1111 0 1104 l 0 13 b 15 0 0 7 7 0 l 528 0 z "},"F":{"ha":697,"x_min":0,"x_max":0,"o":"m 649 658 l 213 658 l 213 910 l 528 910 l 528 1111 l 15 1111 b 0 1099 7 1111 0 1104 l 0 13 b 15 0 0 7 7 0 l 74 0 l 211 0 l 213 0 l 213 457 l 649 457 b 664 469 657 457 664 464 l 664 646 b 649 658 664 653 657 658 z "},"G":{"ha":890,"x_min":0,"x_max":0,"o":"m 847 907 l 847 1099 b 832 1111 847 1104 842 1111 l 651 1111 b 0 556 375 1111 0 1031 b 651 0 0 63 379 0 l 832 0 b 847 13 842 0 847 7 l 847 449 l 847 481 l 847 693 l 635 693 l 421 693 l 421 481 l 635 481 l 635 449 l 635 449 l 635 203 b 214 556 393 190 214 292 b 635 907 214 899 500 913 l 635 907 z "},"H":{"ha":889,"x_min":0,"x_max":0,"o":"m 213 629 l 213 660 l 213 1099 b 197 1111 213 1104 207 1111 l 15 1111 b 0 1099 7 1111 0 1104 l 0 629 z m 831 1111 l 649 1111 b 633 1099 640 1111 633 1104 l 633 660 l 633 453 l 633 415 l 213 415 l 213 417 l 0 417 l 0 13 b 15 0 0 7 7 0 l 197 0 b 213 13 207 0 213 7 l 213 208 l 633 208 l 633 13 b 649 0 633 7 640 0 l 831 0 b 846 13 840 0 846 7 l 846 1099 b 831 1111 846 1104 840 1111 z "},"I":{"ha":492,"x_min":0,"x_max":0,"o":"m 453 190 l 342 190 l 342 583 l 342 921 l 342 1111 l 129 1111 l 129 921 l 129 583 l 129 190 l 15 190 b 0 178 7 190 0 185 l 0 13 b 15 0 0 7 7 0 l 453 0 b 468 13 463 0 468 7 l 468 178 b 453 190 468 185 463 190 z "},"J":{"ha":510,"x_min":0,"x_max":0,"o":"m 93 921 l 274 921 l 485 921 l 485 1099 b 471 1111 485 1104 481 1111 l 93 1111 b 78 1099 83 1111 78 1104 l 78 933 b 93 921 78 928 83 921 z m 274 731 l 274 328 b 153 206 274 328 274 206 l 15 206 b 0 193 7 206 0 200 l 0 13 b 15 0 0 7 7 0 l 153 0 b 485 328 153 0 485 0 l 485 731 z "},"K":{"ha":935,"x_min":0,"x_max":0,"o":"m 886 21 l 440 546 l 882 1090 b 869 1111 892 1100 885 1111 l 643 1111 b 631 1107 640 1111 632 1108 l 213 593 l 213 1099 b 199 1111 213 1104 207 1111 l 15 1111 b 0 1099 7 1111 0 1104 l 0 68 l 0 68 b 299 404 0 68 271 375 l 622 4 b 635 0 624 3 632 0 l 874 0 b 886 21 888 0 894 10 z "},"L":{"ha":647,"x_min":0,"x_max":0,"o":"m 600 207 l 213 207 l 0 207 l 0 13 b 15 0 0 7 7 0 l 600 0 b 615 13 610 0 615 7 l 615 193 b 600 207 615 200 610 207 z m 213 419 l 213 1099 b 199 1111 213 1104 207 1111 l 15 1111 b 0 1099 7 1111 0 1104 l 0 419 z "},"M":{"ha":1267,"x_min":0,"x_max":0,"o":"m 994 268 l 1206 268 l 1206 1099 b 1190 1111 1206 1104 1200 1111 l 1007 1111 b 992 1103 1001 1111 994 1107 l 613 289 l 214 1103 b 200 1111 213 1107 204 1111 l 14 1111 b 0 1099 4 1111 0 1104 l 0 13 b 14 0 0 7 4 0 l 197 0 b 213 13 206 0 213 7 l 213 636 l 514 53 b 528 44 515 49 524 44 l 699 44 b 711 53 703 44 710 49 l 994 621 z "},"N":{"ha":982,"x_min":0,"x_max":0,"o":"m 919 1111 l 740 1111 b 724 1099 731 1111 724 1104 l 724 375 l 211 1107 b 199 1111 210 1110 201 1111 l 14 1111 b 0 1099 7 1111 0 1104 l 0 267 l 213 267 l 213 736 l 724 4 b 736 0 725 1 733 0 l 919 0 b 935 13 929 0 935 7 l 935 1099 b 919 1111 935 1104 929 1111 z "},"O":{"ha":1122,"x_min":0,"x_max":0,"o":"m 639 553 b 535 658 639 611 593 658 b 431 553 476 658 431 611 b 535 449 431 496 476 449 b 639 553 593 449 639 496 z m 1069 557 b 536 1111 1069 833 890 1111 b 0 557 176 1111 0 833 b 536 0 0 279 176 0 b 1069 557 890 0 1069 279 z m 861 553 b 536 194 861 374 751 194 b 210 553 318 194 210 374 b 536 915 210 735 318 915 b 861 553 751 915 861 735 z "},"P":{"ha":786,"x_min":0,"x_max":0,"o":"m 374 1111 l 14 1111 b 0 1099 7 1111 0 1104 l 0 907 l 208 907 l 374 907 b 538 778 399 907 538 900 b 374 653 538 656 401 653 l 208 653 l 0 653 l 0 13 b 14 0 0 7 7 0 l 194 0 b 208 13 204 0 208 7 l 208 447 l 374 447 b 749 778 400 447 749 451 b 374 1111 749 1104 418 1111 z "},"Q":{"ha":1135,"x_min":0,"x_max":0,"o":"m 203 564 b 229 706 203 613 213 661 l 688 247 b 532 208 639 224 581 208 b 203 564 332 208 203 379 z m 864 564 b 828 396 864 510 850 443 l 357 867 b 532 915 406 897 464 915 b 864 564 747 915 864 749 z m 1075 142 l 974 244 b 1065 564 1031 332 1065 456 b 532 1111 1065 854 849 1111 b 0 564 203 1111 0 854 b 532 13 0 271 213 13 b 833 104 642 13 746 47 l 933 3 b 956 3 940 -1 949 -1 l 1075 124 b 1075 142 1082 129 1082 138 z "},"R":{"ha":799,"x_min":0,"x_max":0,"o":"m 758 18 b 544 482 689 172 614 325 b 749 781 656 522 749 611 b 374 1111 749 1108 436 1111 l 14 1111 b 0 1099 7 1111 0 1104 l 0 910 l 211 910 l 374 910 b 538 781 407 910 538 903 b 374 653 538 658 419 653 l 211 653 l 0 653 l 0 13 b 14 0 0 7 7 0 l 196 0 b 211 13 204 0 211 7 l 211 449 l 331 449 l 533 8 b 547 0 535 4 543 0 l 746 0 b 758 18 757 0 763 8 z "},"S":{"ha":725,"x_min":0,"x_max":0,"o":"m 510 617 b 346 654 431 654 353 654 b 207 776 275 654 207 696 b 346 911 207 865 269 911 b 482 794 418 911 479 874 b 497 783 482 790 489 783 l 671 783 b 686 794 681 783 688 790 b 346 1111 683 983 536 1111 b 0 776 168 1111 0 985 b 181 496 0 647 65 549 b 346 458 261 458 336 458 b 485 324 408 456 485 406 b 346 200 485 250 419 200 b 344 200 346 200 346 200 l 344 0 b 346 0 346 0 346 0 b 690 324 524 0 690 115 b 510 617 690 454 626 563 z "},"T":{"ha":701,"x_min":0,"x_max":0,"o":"m 229 708 l 229 13 b 244 0 229 7 235 0 l 424 0 b 440 13 433 0 440 7 l 440 708 z m 15 921 l 653 921 b 668 933 663 921 668 926 l 668 1099 b 653 1111 668 1104 663 1111 l 15 1111 b 0 1099 7 1111 0 1104 l 0 933 b 15 921 0 926 7 921 z "},"U":{"ha":875,"x_min":0,"x_max":0,"o":"m 819 1111 l 639 1111 b 624 1099 629 1111 624 1104 l 624 371 b 417 204 624 258 521 204 b 210 372 314 204 222 263 l 210 910 l 0 910 l 0 371 b 417 0 0 142 188 0 b 833 371 653 0 833 136 l 833 1099 b 819 1111 833 1104 826 1111 z "},"V":{"ha":833,"x_min":0,"x_max":0,"o":"m 579 904 l 433 497 l 217 1103 b 203 1111 215 1108 210 1111 l 14 1111 b 1 1094 3 1111 -3 1103 l 419 7 b 446 7 425 -3 442 -3 l 793 904 z "},"W":{"ha":1439,"x_min":0,"x_max":0,"o":"m 1154 907 l 1013 525 l 793 1103 b 779 1111 790 1108 785 1111 l 590 1111 b 578 1103 585 1111 579 1108 l 357 525 l 217 907 l 0 907 l 344 8 b 371 8 349 -3 367 -3 l 685 832 l 999 8 b 1025 8 1003 -3 1021 -3 l 1371 907 z "},"X":{"ha":1081,"x_min":0,"x_max":0,"o":"m 1013 1111 l 790 1111 b 778 1107 788 1111 779 1110 l 515 736 l 399 899 l 140 899 b 385 556 222 783 303 668 l 4 21 b 15 0 -4 11 1 0 l 238 0 b 250 4 240 0 249 1 l 515 375 l 631 213 l 889 213 b 643 556 807 328 725 443 l 1026 1090 b 1013 1111 1033 1100 1028 1111 z "},"Y":{"ha":933,"x_min":0,"x_max":0,"o":"m 631 899 l 514 736 l 250 1107 b 236 1111 247 1110 240 1111 l 17 1111 b 3 1090 1 1111 -4 1100 b 408 522 138 901 275 713 l 408 13 b 424 0 408 7 414 0 l 606 0 b 621 13 614 0 621 7 l 621 522 l 889 899 z "},"Z":{"ha":699,"x_min":0,"x_max":0,"o":"m 650 206 l 79 206 l 3 18 b 18 0 -1 7 4 0 l 649 0 b 665 13 658 0 665 7 l 665 193 b 650 206 665 200 660 206 z m 15 904 l 358 904 l 164 418 l 392 418 l 663 1093 b 647 1111 665 1104 660 1111 l 15 1111 b 0 1099 7 1111 0 1104 l 0 918 b 15 904 0 911 7 904 z "},"a":{"ha":917,"x_min":0,"x_max":0,"o":"m 872 17 l 450 1103 b 422 1103 446 1114 426 1114 l 1 17 b 15 0 -3 8 3 0 l 206 0 b 219 8 211 0 218 3 l 436 628 l 656 8 b 668 0 657 3 664 0 l 860 0 b 872 17 869 0 876 8 z "},"b":{"ha":808,"x_min":0,"x_max":0,"o":"m 542 781 b 378 658 542 658 378 658 l 211 658 l 211 913 l 378 913 b 542 781 378 913 542 914 z m 754 793 b 378 1111 754 1119 378 1111 l 15 1111 b 0 1099 7 1111 0 1104 l 0 451 l 211 451 l 378 451 b 557 329 378 451 557 460 b 378 203 557 222 447 203 l 213 203 l 213 0 l 378 0 b 769 324 453 0 769 14 b 600 556 769 324 776 496 b 754 793 685 590 754 664 z "},"c":{"ha":890,"x_min":0,"x_max":0,"o":"m 635 204 l 635 204 b 214 556 500 199 214 213 b 635 908 214 819 393 921 l 635 663 l 847 663 l 847 1099 b 832 1111 847 1104 842 1111 l 651 1111 b 0 556 379 1111 0 1049 b 651 0 0 81 375 0 l 832 0 b 847 13 842 0 847 7 l 847 204 z "},"d":{"ha":890,"x_min":0,"x_max":0,"o":"m 197 1111 l 15 1111 b 0 1099 7 1111 0 1104 l 0 663 l 213 663 l 213 908 b 633 556 454 921 633 819 b 213 204 633 213 347 199 l 213 449 l 0 449 l 0 13 b 15 0 0 7 7 0 l 197 0 b 847 556 474 0 847 81 b 197 1111 847 1049 468 1111 z "},"e":{"ha":697,"x_min":0,"x_max":0,"o":"m 528 207 l 213 207 l 213 457 l 649 457 b 664 469 657 457 664 464 l 664 646 b 649 658 664 653 657 658 l 213 658 l 213 910 l 528 910 l 528 1111 l 15 1111 b 0 1099 7 1111 0 1104 l 0 13 b 15 0 0 7 7 0 l 528 0 z "},"f":{"ha":697,"x_min":0,"x_max":0,"o":"m 649 658 l 213 658 l 213 910 l 528 910 l 528 1111 l 15 1111 b 0 1099 7 1111 0 1104 l 0 13 b 15 0 0 7 7 0 l 74 0 l 211 0 l 213 0 l 213 457 l 649 457 b 664 469 657 457 664 464 l 664 646 b 649 658 664 653 657 658 z "},"g":{"ha":890,"x_min":0,"x_max":0,"o":"m 847 907 l 847 1099 b 832 1111 847 1104 842 1111 l 651 1111 b 0 556 375 1111 0 1031 b 651 0 0 63 379 0 l 832 0 b 847 13 842 0 847 7 l 847 449 l 847 481 l 847 693 l 635 693 l 421 693 l 421 481 l 635 481 l 635 449 l 635 449 l 635 203 b 214 556 393 190 214 292 b 635 907 214 899 500 913 l 635 907 z "},"h":{"ha":889,"x_min":0,"x_max":0,"o":"m 213 629 l 213 660 l 213 1099 b 197 1111 213 1104 207 1111 l 15 1111 b 0 1099 7 1111 0 1104 l 0 629 z m 831 1111 l 649 1111 b 633 1099 640 1111 633 1104 l 633 660 l 633 453 l 633 415 l 213 415 l 213 417 l 0 417 l 0 13 b 15 0 0 7 7 0 l 197 0 b 213 13 207 0 213 7 l 213 208 l 633 208 l 633 13 b 649 0 633 7 640 0 l 831 0 b 846 13 840 0 846 7 l 846 1099 b 831 1111 846 1104 840 1111 z "},"i":{"ha":492,"x_min":0,"x_max":0,"o":"m 453 190 l 342 190 l 342 583 l 342 921 l 342 1111 l 129 1111 l 129 921 l 129 583 l 129 190 l 15 190 b 0 178 7 190 0 185 l 0 13 b 15 0 0 7 7 0 l 453 0 b 468 13 463 0 468 7 l 468 178 b 453 190 468 185 463 190 z "},"j":{"ha":510,"x_min":0,"x_max":0,"o":"m 93 921 l 274 921 l 485 921 l 485 1099 b 471 1111 485 1104 481 1111 l 93 1111 b 78 1099 83 1111 78 1104 l 78 933 b 93 921 78 928 83 921 z m 274 731 l 274 328 b 153 206 274 328 274 206 l 15 206 b 0 193 7 206 0 200 l 0 13 b 15 0 0 7 7 0 l 153 0 b 485 328 153 0 485 0 l 485 731 z "},"k":{"ha":935,"x_min":0,"x_max":0,"o":"m 886 21 l 440 546 l 882 1090 b 869 1111 892 1100 885 1111 l 643 1111 b 631 1107 640 1111 632 1108 l 213 593 l 213 1099 b 199 1111 213 1104 207 1111 l 15 1111 b 0 1099 7 1111 0 1104 l 0 68 l 0 68 b 299 404 0 68 271 375 l 622 4 b 635 0 624 3 632 0 l 874 0 b 886 21 888 0 894 10 z "},"l":{"ha":647,"x_min":0,"x_max":0,"o":"m 600 207 l 213 207 l 0 207 l 0 13 b 15 0 0 7 7 0 l 600 0 b 615 13 610 0 615 7 l 615 193 b 600 207 615 200 610 207 z m 213 419 l 213 1099 b 199 1111 213 1104 207 1111 l 15 1111 b 0 1099 7 1111 0 1104 l 0 419 z "},"m":{"ha":1267,"x_min":0,"x_max":0,"o":"m 994 268 l 1206 268 l 1206 1099 b 1190 1111 1206 1104 1200 1111 l 1007 1111 b 992 1103 1001 1111 994 1107 l 613 289 l 214 1103 b 200 1111 213 1107 204 1111 l 14 1111 b 0 1099 4 1111 0 1104 l 0 13 b 14 0 0 7 4 0 l 197 0 b 213 13 206 0 213 7 l 213 636 l 514 53 b 528 44 515 49 524 44 l 699 44 b 711 53 703 44 710 49 l 994 621 z "},"n":{"ha":982,"x_min":0,"x_max":0,"o":"m 919 1111 l 740 1111 b 724 1099 731 1111 724 1104 l 724 375 l 211 1107 b 199 1111 210 1110 201 1111 l 14 1111 b 0 1099 7 1111 0 1104 l 0 267 l 213 267 l 213 736 l 724 4 b 736 0 725 1 733 0 l 919 0 b 935 13 929 0 935 7 l 935 1099 b 919 1111 935 1104 929 1111 z "},"o":{"ha":1122,"x_min":0,"x_max":0,"o":"m 639 553 b 535 658 639 611 593 658 b 431 553 476 658 431 611 b 535 449 431 496 476 449 b 639 553 593 449 639 496 z m 1069 557 b 536 1111 1069 833 890 1111 b 0 557 176 1111 0 833 b 536 0 0 279 176 0 b 1069 557 890 0 1069 279 z m 861 553 b 536 194 861 374 751 194 b 210 553 318 194 210 374 b 536 915 210 735 318 915 b 861 553 751 915 861 735 z "},"p":{"ha":786,"x_min":0,"x_max":0,"o":"m 374 1111 l 14 1111 b 0 1099 7 1111 0 1104 l 0 907 l 208 907 l 374 907 b 538 778 399 907 538 900 b 374 653 538 656 401 653 l 208 653 l 0 653 l 0 13 b 14 0 0 7 7 0 l 194 0 b 208 13 204 0 208 7 l 208 447 l 374 447 b 749 778 400 447 749 451 b 374 1111 749 1104 418 1111 z "},"q":{"ha":1135,"x_min":0,"x_max":0,"o":"m 203 564 b 229 706 203 613 213 661 l 688 247 b 532 208 639 224 581 208 b 203 564 332 208 203 379 z m 864 564 b 828 396 864 510 850 443 l 357 867 b 532 915 406 897 464 915 b 864 564 747 915 864 749 z m 1075 142 l 974 244 b 1065 564 1031 332 1065 456 b 532 1111 1065 854 849 1111 b 0 564 203 1111 0 854 b 532 13 0 271 213 13 b 833 104 642 13 746 47 l 933 3 b 956 3 940 -1 949 -1 l 1075 124 b 1075 142 1082 129 1082 138 z "},"r":{"ha":799,"x_min":0,"x_max":0,"o":"m 758 18 b 544 482 689 172 614 325 b 749 781 656 522 749 611 b 374 1111 749 1108 436 1111 l 14 1111 b 0 1099 7 1111 0 1104 l 0 910 l 211 910 l 374 910 b 538 781 407 910 538 903 b 374 653 538 658 419 653 l 211 653 l 0 653 l 0 13 b 14 0 0 7 7 0 l 196 0 b 211 13 204 0 211 7 l 211 449 l 331 449 l 533 8 b 547 0 535 4 543 0 l 746 0 b 758 18 757 0 763 8 z "},"s":{"ha":725,"x_min":0,"x_max":0,"o":"m 510 617 b 346 654 431 654 353 654 b 207 776 275 654 207 696 b 346 911 207 865 269 911 b 482 794 418 911 479 874 b 497 783 482 790 489 783 l 671 783 b 686 794 681 783 688 790 b 346 1111 683 983 536 1111 b 0 776 168 1111 0 985 b 181 496 0 647 65 549 b 346 458 261 458 336 458 b 485 324 408 456 485 406 b 346 200 485 250 419 200 b 344 200 346 200 346 200 l 344 0 b 346 0 346 0 346 0 b 690 324 524 0 690 115 b 510 617 690 454 626 563 z "},"t":{"ha":701,"x_min":0,"x_max":0,"o":"m 229 708 l 229 13 b 244 0 229 7 235 0 l 424 0 b 440 13 433 0 440 7 l 440 708 z m 15 921 l 653 921 b 668 933 663 921 668 926 l 668 1099 b 653 1111 668 1104 663 1111 l 15 1111 b 0 1099 7 1111 0 1104 l 0 933 b 15 921 0 926 7 921 z "},"u":{"ha":875,"x_min":0,"x_max":0,"o":"m 819 1111 l 639 1111 b 624 1099 629 1111 624 1104 l 624 371 b 417 204 624 258 521 204 b 210 372 314 204 222 263 l 210 910 l 0 910 l 0 371 b 417 0 0 142 188 0 b 833 371 653 0 833 136 l 833 1099 b 819 1111 833 1104 826 1111 z "},"v":{"ha":833,"x_min":0,"x_max":0,"o":"m 579 904 l 433 497 l 217 1103 b 203 1111 215 1108 210 1111 l 14 1111 b 1 1094 3 1111 -3 1103 l 419 7 b 446 7 425 -3 442 -3 l 793 904 z "},"w":{"ha":1439,"x_min":0,"x_max":0,"o":"m 1154 907 l 1013 525 l 793 1103 b 779 1111 790 1108 785 1111 l 590 1111 b 578 1103 585 1111 579 1108 l 357 525 l 217 907 l 0 907 l 344 8 b 371 8 349 -3 367 -3 l 685 832 l 999 8 b 1025 8 1003 -3 1021 -3 l 1371 907 z "},"x":{"ha":1081,"x_min":0,"x_max":0,"o":"m 1013 1111 l 790 1111 b 778 1107 788 1111 779 1110 l 515 736 l 399 899 l 140 899 b 385 556 222 783 303 668 l 4 21 b 15 0 -4 11 1 0 l 238 0 b 250 4 240 0 249 1 l 515 375 l 631 213 l 889 213 b 643 556 807 328 725 443 l 1026 1090 b 1013 1111 1033 1100 1028 1111 z "},"y":{"ha":933,"x_min":0,"x_max":0,"o":"m 631 899 l 514 736 l 250 1107 b 236 1111 247 1110 240 1111 l 17 1111 b 3 1090 1 1111 -4 1100 b 408 522 138 901 275 713 l 408 13 b 424 0 408 7 414 0 l 606 0 b 621 13 614 0 621 7 l 621 522 l 889 899 z "},"z":{"ha":699,"x_min":0,"x_max":0,"o":"m 650 206 l 79 206 l 3 18 b 18 0 -1 7 4 0 l 649 0 b 665 13 658 0 665 7 l 665 193 b 650 206 665 200 660 206 z m 15 904 l 358 904 l 164 418 l 392 418 l 663 1093 b 647 1111 665 1104 660 1111 l 15 1111 b 0 1099 7 1111 0 1104 l 0 918 b 15 904 0 911 7 904 z "},"–":{"ha":814,"x_min":0,"x_max":0,"o":"m 676 776 b 664 789 676 782 672 789 l 167 789 b 151 776 157 789 151 782 l 151 626 b 167 615 151 621 157 615 l 664 615 b 676 626 672 615 676 621 z "},"‚":{"ha":1389,"x_min":0,"x_max":0,"o":""},"−":{"ha":814,"x_min":0,"x_max":0,"o":"m 676 776 b 664 789 676 782 672 789 l 167 789 b 151 776 157 789 151 782 l 151 626 b 167 615 151 621 157 615 l 664 615 b 676 626 672 615 676 621 z "}}}
